<svg xmlns="http://www.w3.org/2000/svg" xmlns:xlink="http://www.w3.org/1999/xlink" id="Layer_1" width="350" height="260" x="0" y="0" enable-background="new 1635.295 98.552 350 260" version="1.1" viewBox="1635.295 98.552 350 260" xml:space="preserve"><g><g><path fill="#09B7BF" d="M1782.768,137.599c5.916-11.074,14.469-19.823,24.486-25.902c-10.553-6.202-21.217-9.956-30.826-9.956 c-37.338,0-67.621,30.274-67.621,67.62c0,37.246,30.115,67.45,67.322,67.615C1743.543,219.277,1765.229,170.463,1782.768,137.599z"/><path fill="#0071BC" d="M1874.273,109.787c-21.873-11.671-47.281-10.099-67.02,1.91c30.479,17.913,59.982,56.325,59.982,84.073 c0,37.346-53.457,41.214-90.809,41.214c-0.094,0-0.197-0.006-0.299-0.006c0.086,0.045,0.162,0.091,0.246,0.137 c32.949,17.583,108.117-2.886,125.699-35.834C1919.666,168.335,1907.213,127.37,1874.273,109.787z"/><path fill="#00AFDE" d="M1867.236,195.77c0-27.749-29.504-66.16-59.982-84.073c-10.018,6.079-18.57,14.828-24.486,25.902 c-17.539,32.864-39.225,81.677-6.639,99.376c0.102,0,0.205,0.009,0.299,0.009C1813.779,236.984,1867.236,233.114,1867.236,195.77z"/><g><g><g><path fill="#58595B" d="M1697.09,270.336l-2.84,5.491l-0.508-0.274c0-0.461-0.146-0.826-0.441-1.093 c-0.799-0.716-1.979-1.305-3.537-1.769c-1.555-0.464-3.135-0.695-4.734-0.695c-1.361,0-2.566,0.191-3.619,0.567 c-1.514,0.548-2.271,1.341-2.271,2.379c0,0.688,0.365,1.176,1.094,1.463c0.73,0.286,2.141,0.518,4.23,0.687l3.324,0.25 c2.902,0.226,5.113,0.788,6.627,1.685c0.844,0.505,1.537,1.179,2.084,2.021c0.686,1.053,1.029,2.235,1.029,3.557 c0,2.398-1.078,4.293-3.238,5.681c-2.063,1.332-4.855,2.001-8.375,2.001c-3.551,0-6.98-0.753-10.291-2.253 c-0.225-0.1-0.414-0.148-0.566-0.148c-0.283,0-0.541,0.169-0.779,0.506l-0.527-0.211l2.42-5.767l0.525,0.212 c0,0.083,0,0.14,0,0.169c0,0.364,0.141,0.673,0.422,0.925c0.701,0.619,1.914,1.154,3.639,1.609s3.432,0.684,5.113,0.684 c1.486,0,2.82-0.195,3.998-0.588c1.459-0.479,2.189-1.25,2.189-2.315c0-0.854-0.504-1.454-1.516-1.788 c-0.672-0.225-1.887-0.414-3.641-0.568l-3.305-0.274c-1.779-0.141-3.143-0.323-4.082-0.548 c-0.938-0.223-1.76-0.554-2.459-0.989c-0.9-0.562-1.6-1.325-2.105-2.293c-0.504-0.969-0.758-2.026-0.758-3.178 c0-2.581,1.107-4.552,3.322-5.913c2.02-1.232,4.518-1.852,7.49-1.852c1.615,0,3.119,0.179,4.514,0.537 c1.396,0.356,3.063,0.985,4.998,1.882c0.574,0.267,0.977,0.401,1.199,0.401c0.225,0,0.512-0.155,0.861-0.464L1697.09,270.336z"/><path fill="#58595B" d="M1707.947,270.354v19.259c0,0.433,0.1,0.767,0.295,0.995c0.197,0.232,0.547,0.427,1.051,0.579v0.591 h-8.332v-0.591c0.492-0.126,0.84-0.308,1.043-0.546c0.203-0.239,0.305-0.575,0.305-1.011v-19.274 c0-0.436-0.1-0.765-0.295-0.988s-0.549-0.416-1.053-0.567v-0.59h8.332v0.59c-0.502,0.141-0.854,0.325-1.053,0.555 C1708.045,269.587,1707.947,269.92,1707.947,270.354z"/><path fill="#58595B" d="M1726.443,272.482v17.131c0,0.434,0.098,0.769,0.295,0.999c0.195,0.229,0.545,0.423,1.053,0.577v0.589 h-8.334v-0.589c0.492-0.128,0.84-0.31,1.041-0.548c0.203-0.238,0.307-0.574,0.307-1.01v-17.149h-6.945 c-0.451,0-0.791,0.1-1.021,0.302c-0.23,0.199-0.416,0.55-0.555,1.046h-0.568v-6.966h0.568c0.125,0.491,0.305,0.84,0.535,1.043 c0.234,0.204,0.574,0.306,1.023,0.306h19.547c0.449,0,0.789-0.098,1.02-0.295c0.23-0.195,0.418-0.548,0.559-1.054h0.568v6.966 h-0.568c-0.143-0.496-0.328-0.847-0.557-1.046c-0.234-0.2-0.572-0.302-1.021-0.302H1726.443L1726.443,272.482z"/><path fill="#58595B" d="M1745.213,281.76v5.745h14.961c0.436,0,0.77-0.098,1-0.287c0.234-0.196,0.416-0.546,0.557-1.058h0.59 v6.966h-0.59c-0.127-0.492-0.307-0.84-0.545-1.043c-0.238-0.204-0.576-0.305-1.012-0.305h-21.945v-0.59 c0.488-0.126,0.838-0.308,1.041-0.546c0.201-0.24,0.305-0.576,0.305-1.012v-19.272c0-0.434-0.1-0.766-0.295-0.99 c-0.193-0.223-0.547-0.415-1.051-0.567v-0.59h21.293c0.451,0,0.791-0.097,1.021-0.294c0.23-0.195,0.416-0.546,0.557-1.054 h0.566v6.968h-0.566c-0.141-0.512-0.326-0.865-0.557-1.059c-0.232-0.194-0.572-0.289-1.021-0.289h-14.309v5.177h8.879 c0.436,0,0.768-0.098,1-0.295c0.232-0.195,0.424-0.548,0.578-1.053h0.57v6.797h-0.57c-0.141-0.497-0.326-0.845-0.557-1.046 c-0.229-0.199-0.572-0.302-1.02-0.302h-8.881V281.76L1745.213,281.76z"/><path fill="#58595B" d="M1787.529,279.112c1.164,0.533,2.021,1.064,2.568,1.598c1.023,1.01,1.535,2.372,1.535,4.082 c0,2.302-0.867,4.075-2.607,5.324c-1.543,1.107-3.67,1.665-6.377,1.665h-16.773v-0.591c0.492-0.126,0.84-0.308,1.043-0.545 c0.203-0.24,0.305-0.576,0.305-1.012v-19.274c0-0.434-0.098-0.765-0.295-0.989c-0.195-0.223-0.549-0.415-1.053-0.566v-0.59 h16.5c2.887,0,5.006,0.521,6.354,1.558c1.432,1.095,2.146,2.597,2.146,4.503c0,1.124-0.248,2.041-0.746,2.757 C1789.631,277.744,1788.764,278.438,1787.529,279.112z M1772.863,277.048h8.564c1.348,0,2.303-0.171,2.863-0.516 c0.559-0.344,0.84-0.938,0.84-1.777c0-0.828-0.277-1.415-0.83-1.759s-1.512-0.518-2.873-0.518h-8.564V277.048L1772.863,277.048 z M1772.863,287.505h8.775c2.832,0,4.252-1.03,4.252-3.093c0-2.061-1.42-3.092-4.252-3.092h-8.775V287.505z"/><path fill="#58595B" d="M1819.789,270.356v12.479c0,2.848-0.561,4.937-1.684,6.27c-1.809,2.12-5.217,3.179-10.229,3.179 c-3.352,0-6.059-0.513-8.121-1.535c-1.488-0.744-2.504-1.803-3.053-3.179c-0.504-1.263-0.756-2.842-0.756-4.734v-12.479 c0-0.433-0.1-0.763-0.295-0.988c-0.195-0.224-0.549-0.414-1.053-0.567v-0.589h8.334v0.589 c-0.514,0.141-0.865,0.325-1.059,0.557c-0.193,0.233-0.291,0.564-0.291,0.999v11.343c0,1.317,0.117,2.327,0.352,3.029 c0.229,0.702,0.633,1.278,1.207,1.727c1.15,0.911,2.813,1.367,4.988,1.367c2.172,0,3.838-0.456,4.986-1.367 c0.563-0.448,0.953-1.024,1.18-1.727c0.225-0.702,0.336-1.712,0.336-3.029v-11.343c0-0.433-0.096-0.763-0.285-0.988 c-0.188-0.224-0.541-0.414-1.061-0.567v-0.589h7.846v0.589c-0.502,0.141-0.854,0.325-1.051,0.557 C1819.887,269.589,1819.789,269.92,1819.789,270.356z"/><path fill="#58595B" d="M1831.803,270.354v19.259c0,0.433,0.102,0.767,0.295,0.995c0.197,0.232,0.549,0.427,1.053,0.579v0.591 h-8.332v-0.591c0.492-0.126,0.838-0.308,1.041-0.546c0.205-0.239,0.307-0.575,0.307-1.011v-19.274 c0-0.436-0.1-0.765-0.295-0.988s-0.547-0.416-1.053-0.567v-0.59h8.332v0.59c-0.502,0.141-0.855,0.325-1.053,0.555 C1831.904,269.587,1831.803,269.92,1831.803,270.354z"/><path fill="#58595B" d="M1844.283,287.505h13.193c0.449,0,0.785-0.098,1.012-0.287c0.223-0.194,0.412-0.546,0.566-1.058h0.568 v6.966h-0.568c-0.141-0.507-0.324-0.858-0.557-1.053c-0.232-0.198-0.572-0.295-1.02-0.295h-20.182v-0.59 c0.492-0.126,0.838-0.308,1.041-0.546c0.205-0.24,0.307-0.576,0.307-1.012v-19.272c0-0.434-0.098-0.766-0.295-0.989 c-0.195-0.224-0.549-0.416-1.053-0.568v-0.589h8.334v0.589c-0.504,0.141-0.857,0.325-1.053,0.558 c-0.197,0.231-0.295,0.564-0.295,0.998V287.505L1844.283,287.505z"/><path fill="#58595B" d="M1863.389,289.631v-19.275c0-0.433-0.098-0.763-0.295-0.988c-0.195-0.224-0.545-0.414-1.053-0.567 v-0.589h13.826c2.875,0,5.141,0.355,6.795,1.071c2.33,1.012,4.006,2.681,5.031,5.009c0.717,1.629,1.072,3.529,1.072,5.704 c0,4.024-1.199,7.077-3.598,9.151c-1.08,0.928-2.354,1.599-3.82,2.011c-1.467,0.413-3.293,0.621-5.482,0.621h-13.824v-0.589 c0.49-0.126,0.84-0.309,1.043-0.547S1863.389,290.067,1863.389,289.631z M1869.029,287.505h6.016c2.764,0,4.77-0.63,6.02-1.894 c1.303-1.319,1.957-3.19,1.957-5.618c0-2.427-0.654-4.299-1.957-5.62c-0.645-0.657-1.445-1.139-2.4-1.439 c-0.953-0.302-2.16-0.455-3.619-0.455h-6.018v15.026H1869.029z"/><path fill="#58595B" d="M1899.352,281.76v5.745h14.961c0.436,0,0.77-0.098,0.998-0.287c0.232-0.196,0.418-0.546,0.559-1.058 h0.59v6.966h-0.59c-0.127-0.492-0.309-0.84-0.547-1.043c-0.236-0.204-0.576-0.305-1.012-0.305h-21.947v-0.59 c0.492-0.126,0.84-0.308,1.041-0.546c0.205-0.24,0.309-0.576,0.309-1.012v-19.272c0-0.434-0.1-0.766-0.295-0.99 c-0.197-0.223-0.547-0.415-1.055-0.567v-0.59h21.297c0.447,0,0.787-0.097,1.02-0.294c0.232-0.195,0.418-0.546,0.557-1.054 h0.568v6.968h-0.568c-0.141-0.512-0.324-0.865-0.557-1.059c-0.232-0.192-0.572-0.289-1.02-0.289h-14.309v5.177h8.879 c0.434,0,0.768-0.098,1-0.295c0.23-0.195,0.422-0.548,0.578-1.053h0.566v6.797h-0.566c-0.141-0.497-0.326-0.845-0.557-1.046 c-0.232-0.199-0.572-0.302-1.02-0.302h-8.881V281.76L1899.352,281.76z"/><path fill="#58595B" d="M1927,282.098v7.517c0,0.435,0.1,0.767,0.295,0.998c0.197,0.23,0.547,0.423,1.051,0.576v0.59h-8.33 v-0.59c0.492-0.126,0.838-0.308,1.041-0.546c0.203-0.24,0.307-0.576,0.307-1.012v-19.272c0-0.436-0.1-0.766-0.297-0.989 c-0.193-0.224-0.547-0.416-1.051-0.568v-0.589h15.445c2.006,0,3.535,0.101,4.588,0.305c1.053,0.203,1.99,0.571,2.816,1.107 c1.701,1.106,2.549,2.916,2.549,5.428c0,1.907-0.523,3.398-1.568,4.471c-1.047,1.072-2.732,1.847-5.061,2.325l4.461,6.214 c0.813,1.148,1.461,1.928,1.945,2.341c0.484,0.414,1.033,0.676,1.652,0.787v0.591h-9.912v-0.591 c0.73-0.195,1.096-0.509,1.096-0.943c0-0.308-0.227-0.777-0.674-1.408l-4.711-6.738H1927V282.098L1927,282.098z M1927,277.828 h8.502c1.291,0,2.244-0.141,2.861-0.421c0.871-0.378,1.305-1.129,1.305-2.25c0-0.997-0.307-1.691-0.916-2.083 c-0.609-0.393-1.693-0.59-3.25-0.59H1927V277.828L1927,277.828z"/></g></g><g><path fill="#FFF" d="M1753.426,178.775v23.097c0,1.02,0.246,1.81,0.738,2.371c0.492,0.561,1.334,0.994,2.525,1.3v1.631 h-21.723v-1.631c1.225-0.341,2.072-0.782,2.549-1.325c0.477-0.543,0.715-1.325,0.715-2.346v-58.943 c0-1.057-0.238-1.854-0.715-2.399c-0.477-0.541-1.324-0.985-2.549-1.325v-1.632h43.547c5.301,0,9.508,0.307,12.619,0.92 c3.109,0.612,5.822,1.68,8.131,3.213c2.688,1.766,4.693,4.163,6.02,7.187c1.258,2.924,1.887,6.051,1.887,9.382 c0,11.354-6.307,18-18.92,19.938l13.514,19.226c2.379,3.363,4.123,5.532,5.229,6.498c1.105,0.971,2.455,1.505,4.053,1.607v1.633 h-25.146v-1.633c1.73-0.272,2.598-0.883,2.598-1.834c0-0.613-0.797-2.092-2.393-4.438l-14.1-20.496H1753.426L1753.426,178.775z M1753.426,167.299h23.455c3.467,0,5.916-0.102,7.344-0.305s2.736-0.629,3.926-1.276c2.582-1.392,3.875-3.908,3.875-7.546 c0-3.637-1.291-6.151-3.875-7.547c-1.223-0.68-2.523-1.113-3.9-1.3c-1.377-0.185-3.834-0.281-7.367-0.281h-23.457V167.299z"/><path fill="#FFF" d="M1851.148,186.942l18.469-40.854c0.783-1.733,1.174-3.077,1.174-4.029c0-1.461-1.121-2.413-3.365-2.854 v-1.632h23.828v1.632c-1.5,0.203-2.535,0.628-3.113,1.273c-0.578,0.647-1.58,2.517-3.012,5.609l-24.133,52.061 c-1.021,2.211-1.531,3.656-1.531,4.335c0,1.734,1.07,2.753,3.213,3.059v1.632h-23.979v-1.632 c2.141-0.306,3.213-1.343,3.213-3.109c0-0.645-0.51-2.073-1.529-4.284l-24.135-52.062c-1.428-3.092-2.432-4.963-3.012-5.609 c-0.578-0.645-1.615-1.07-3.113-1.273v-1.632h24.727v1.632c-2.242,0.441-3.363,1.394-3.363,2.854 c0,0.952,0.389,2.296,1.172,4.028L1851.148,186.942z"/></g></g></g><g><g><path fill="#BCBEC0" d="M1657.521,331.558c-2.48,0-4.5,2.019-4.5,4.502c0,2.479,2.02,4.498,4.5,4.498 c2.479,0,4.498-2.018,4.498-4.498C1662.02,333.577,1660,331.558,1657.521,331.558z M1657.521,339.733 c-2.025,0-3.678-1.649-3.678-3.673c0-2.027,1.652-3.676,3.678-3.676s3.676,1.648,3.676,3.676 C1661.197,338.083,1659.547,339.733,1657.521,339.733z"><animate attributeName="fill" dur="2s" repeatCount="indefinite" values="#09B7BF;#00E894;#FABEA6;#09B7BF"/><animateTransform id="abc" attributeName="transform" attributeType="XML" dur="1s" repeatCount="indefinite" type="translate" values="0,6;0,-6;0,6"/></path><path fill="#BCBEC0" d="M1663.215,329.096h-1.082l-1.383-1.757c-0.156-0.2-0.395-0.316-0.646-0.316h-5.162 c-0.254,0-0.494,0.116-0.648,0.316l-1.383,1.757h-4.969c-1.084,0-1.967,0.885-1.967,1.965v9.995c0,1.085,0.883,1.967,1.967,1.967 h15.273c1.084,0,1.967-0.882,1.967-1.967v-9.995C1665.182,329.981,1664.299,329.096,1663.215,329.096z M1647.623,341.056v-9.992 c0-0.176,0.145-0.317,0.318-0.317h2.9v10.629h-2.9C1647.768,341.375,1647.623,341.232,1647.623,341.056z M1663.533,341.056 c0,0.176-0.145,0.319-0.318,0.319h-11.547v-10.629h1.645c0.252,0,0.486-0.117,0.645-0.315l1.381-1.758h4.361l1.381,1.758 c0.156,0.198,0.398,0.315,0.65,0.315h1.484c0.176,0,0.318,0.142,0.318,0.317V341.056z"><animate attributeName="fill" dur="2s" repeatCount="indefinite" values="#09B7BF;#00E894;#FABEA6;#09B7BF"/><animateTransform id="abc" attributeName="transform" attributeType="XML" dur="1s" repeatCount="indefinite" type="translate" values="0,6;0,-6;0,6"/></path></g><path fill="#BCBEC0" d="M1708.35,330.534c0.025-0.92-0.313-1.782-0.949-2.418l-0.225-0.226c-1.305-1.306-3.479-1.256-4.844,0.111 l-3.104,3.105l-0.427-0.427c-0.291-0.293-0.766-0.293-1.057,0c-0.291,0.292-0.291,0.766,0,1.057l1.123,1.124l-6.496,6.496 c-0.397,0.395-0.633,0.906-0.702,1.459l-0.206,0.205c-0.295,0.29-0.295,0.766-0.002,1.059c0.146,0.146,0.338,0.219,0.529,0.219 s0.383-0.072,0.525-0.219l0.313-0.311c0.029-0.029,0.042-0.066,0.065-0.099c0.146-0.136,0.24-0.326,0.241-0.54 c0-0.273,0.105-0.529,0.295-0.718l6.4-6.398l1.443,1.443l-6.398,6.398c-0.189,0.188-0.445,0.293-0.717,0.296 c-0.025,0-0.046,0.012-0.07,0.015c-0.235-0.047-0.486,0.007-0.67,0.188l-0.311,0.311c-0.295,0.291-0.295,0.764-0.004,1.057 c0.145,0.146,0.338,0.221,0.531,0.221c0.189,0,0.381-0.072,0.525-0.219l0.09-0.088c0.635-0.023,1.23-0.272,1.682-0.722 l6.493-6.496l1.126,1.126c0.146,0.146,0.338,0.218,0.529,0.218s0.383-0.074,0.527-0.218c0.293-0.292,0.293-0.764,0-1.058 l-0.423-0.423l3.104-3.106C1707.945,332.301,1708.32,331.442,1708.35,330.534z M1706.23,331.902l-3.104,3.104l-2.844-2.843 l3.105-3.103c0.781-0.786,2.006-0.837,2.729-0.116l0.227,0.229c0.344,0.344,0.525,0.812,0.51,1.319 C1706.838,331.015,1706.617,331.516,1706.23,331.902z"><animate attributeName="fill" dur="2s" repeatCount="indefinite" values="#09B7BF;#00E894;#FABEA6;#09B7BF"/><animateTransform id="abc" attributeName="transform" attributeType="XML" begin=".1" dur="1s" repeatCount="indefinite" type="translate" values="0,6;0,-6;0,6"/></path><g><rect width="9.842" height="1.557" x="1739.094" y="326.723" fill="#BCBEC0"><animate attributeName="fill" dur="2s" repeatCount="indefinite" values="#09B7BF;#00E894;#FABEA6;#09B7BF"/><animateTransform id="abc" attributeName="transform" attributeType="XML" begin=".2" dur="1s" repeatCount="indefinite" type="translate" values="0,6;0,-6;0,6"/></rect><path fill="#BCBEC0" d="M1748.084,331.466v-2.799h-8.135v2.797l-2.658,5.461l6.104,7.798h1.242l6.102-7.798L1748.084,331.466z M1744.404,342.498v-5.651c0.266-0.142,0.451-0.411,0.451-0.731c0-0.468-0.373-0.843-0.84-0.843s-0.842,0.375-0.842,0.843 c0,0.321,0.187,0.592,0.453,0.732v5.65l-4.512-5.767l2.389-4.907v-1.603h5.023v1.604l2.387,4.906L1744.404,342.498z"><animate attributeName="fill" dur="2s" repeatCount="indefinite" values="#09B7BF;#00E894;#FABEA6;#09B7BF"/><animateTransform id="abc" attributeName="transform" attributeType="XML" begin=".2" dur="1s" repeatCount="indefinite" type="translate" values="0,6;0,-6;0,6"/></path></g><g><path fill="#BCBEC0" d="M1796.873,327.164h-17.283c-0.438,0-0.797,0.356-0.797,0.798v9.573c0,0.001,0,0.001,0,0.002v4.829 c0,0.441,0.359,0.798,0.797,0.798h17.283c0.441,0,0.801-0.356,0.801-0.798v-14.404 C1797.674,327.52,1797.314,327.164,1796.873,327.164z M1796.076,328.758v9.441l-3.328-2.854l-3.865,2.572l-5.287-5.68 l-3.207,3.311v-6.791H1796.076z M1780.389,341.569v-3.725l3.186-3.289l5.063,5.448l3.988-2.664l3.205,2.751 c0.075,0.064,0.158,0.111,0.246,0.144v1.335H1780.389z"><animate attributeName="fill" dur="2s" repeatCount="indefinite" values="#09B7BF;#00E894;#FABEA6;#09B7BF"/><animateTransform id="abc" attributeName="transform" attributeType="XML" begin=".3" dur="1s" repeatCount="indefinite" type="translate" values="0,6;0,-6;0,6"/></path><path fill="#BCBEC0" d="M1789.184,335.082c1.578,0,2.859-1.288,2.859-2.861c0-1.576-1.281-2.864-2.859-2.864 c-1.576,0-2.857,1.288-2.857,2.864C1786.326,333.793,1787.605,335.082,1789.184,335.082z M1789.184,330.951 c0.693,0,1.266,0.571,1.266,1.27c0,0.695-0.572,1.261-1.266,1.261c-0.699,0-1.266-0.565-1.266-1.261 C1787.918,331.522,1788.484,330.951,1789.184,330.951z"><animate attributeName="fill" dur="2s" repeatCount="indefinite" values="#09B7BF;#00E894;#FABEA6;#09B7BF"/><animateTransform id="abc" attributeName="transform" attributeType="XML" begin=".3" dur="1s" repeatCount="indefinite" type="translate" values="0,6;0,-6;0,6"/></path></g><g><path fill="#BCBEC0" d="M1832.451,329.245c-0.426,0-0.773,0.346-0.773,0.771v5.249l-2.102,2.104 c-0.301,0.301-0.301,0.788,0,1.091c0.15,0.15,0.348,0.225,0.545,0.225c0.195,0,0.395-0.074,0.545-0.225l2.238-2.24 c0.015-0.015,0.02-0.033,0.033-0.049c0.17-0.142,0.285-0.348,0.285-0.588v-5.567 C1833.223,329.59,1832.879,329.245,1832.451,329.245z"><animate attributeName="fill" dur="2s" repeatCount="indefinite" values="#09B7BF;#00E894;#FABEA6;#09B7BF"/><animateTransform id="abc" attributeName="transform" attributeType="XML" begin=".4" dur="1s" repeatCount="indefinite" type="translate" values="0,6;0,-6;0,6"/></path><path fill="#BCBEC0" d="M1841.451,335.583C1841.451,335.583,1841.451,335.583,1841.451,335.583 c-0.002-4.956-4.031-8.989-8.987-8.996c-0.005,0-0.008-0.003-0.013-0.003s-0.008,0.003-0.013,0.003 c-4.95,0.007-8.978,4.031-8.986,8.982c0,0.005-0.003,0.009-0.003,0.014c0,0.004,0.002,0.008,0.002,0.012 c0.006,4.959,4.041,8.989,9,8.989c4.963,0,9-4.036,9-8.999C1841.451,335.583,1841.451,335.583,1841.451,335.583L1841.451,335.583 z M1836.506,341.833l-0.211-0.363c-0.105-0.188-0.346-0.249-0.525-0.142c-0.188,0.108-0.25,0.344-0.143,0.528l0.212,0.361 c-0.819,0.42-1.723,0.696-2.682,0.786c-0.118-0.272-0.389-0.463-0.706-0.463c-0.315,0-0.587,0.191-0.707,0.463 c-0.957-0.09-1.86-0.366-2.679-0.785l0.212-0.364c0.104-0.187,0.041-0.42-0.145-0.526c-0.189-0.105-0.42-0.044-0.527,0.144 l-0.207,0.362c-0.877-0.57-1.627-1.318-2.197-2.195l0.365-0.21c0.186-0.105,0.25-0.34,0.145-0.525 c-0.107-0.188-0.342-0.251-0.525-0.146l-0.371,0.212c-0.42-0.818-0.695-1.722-0.786-2.68c0.272-0.119,0.464-0.391,0.464-0.707 s-0.191-0.588-0.464-0.707c0.091-0.958,0.366-1.861,0.786-2.68l0.369,0.212c0.061,0.035,0.125,0.052,0.191,0.052 c0.135,0,0.266-0.068,0.336-0.195c0.104-0.184,0.041-0.42-0.145-0.527l-0.365-0.209c0.571-0.877,1.321-1.625,2.199-2.195 l0.209,0.365c0.072,0.125,0.199,0.195,0.334,0.195c0.064,0,0.131-0.017,0.191-0.054c0.186-0.106,0.252-0.34,0.143-0.526 l-0.209-0.365c0.817-0.419,1.719-0.694,2.676-0.784c0.119,0.273,0.391,0.465,0.707,0.465s0.587-0.191,0.706-0.465 c0.958,0.09,1.86,0.365,2.679,0.784l-0.213,0.365c-0.105,0.187-0.041,0.42,0.146,0.526c0.059,0.035,0.127,0.054,0.191,0.054 c0.133,0,0.262-0.07,0.332-0.195l0.211-0.365c0.877,0.571,1.625,1.32,2.196,2.197l-0.362,0.209 c-0.188,0.107-0.25,0.342-0.141,0.527c0.07,0.125,0.199,0.193,0.332,0.193c0.068,0,0.133-0.017,0.193-0.052l0.363-0.21 c0.419,0.818,0.694,1.721,0.785,2.678c-0.274,0.119-0.465,0.391-0.465,0.707s0.191,0.587,0.465,0.706 c-0.091,0.958-0.366,1.86-0.785,2.679l-0.363-0.208c-0.184-0.105-0.418-0.044-0.525,0.144c-0.107,0.184-0.045,0.42,0.141,0.525 l0.362,0.208C1838.131,340.513,1837.383,341.261,1836.506,341.833z"><animate attributeName="fill" dur="2s" repeatCount="indefinite" values="#09B7BF;#00E894;#FABEA6;#09B7BF"/><animateTransform id="abc" attributeName="transform" attributeType="XML" begin=".4" dur="1s" repeatCount="indefinite" type="translate" values="0,6;0,-6;0,6"/></path></g><g><path fill="#BCBEC0" d="M1876.67,324.883c-3.807,0-6.904,3.098-6.904,6.902c0,0.031,0.029,3.142,2.6,6.454 c0.354,0.468,0.432,1.558,0.4,2.135c-0.012,0.228,0.066,0.448,0.219,0.613c0.156,0.165,0.375,0.259,0.602,0.259h6.188 c0.23,0,0.445-0.096,0.602-0.263c0.152-0.167,0.234-0.391,0.219-0.617c-0.033-0.485,0.014-1.647,0.367-2.117 c2.582-3.32,2.613-6.433,2.613-6.464C1883.574,327.977,1880.475,324.883,1876.67,324.883z M1877.399,339.599h-1.461l-0.709-5.849 c0.169-0.042,0.3-0.135,0.376-0.254c0.102,0.149,0.256,0.29,0.504,0.29c0.25,0,0.404-0.141,0.504-0.292 c0.1,0.151,0.254,0.292,0.506,0.292c0.25,0,0.406-0.141,0.506-0.296c0.096,0.149,0.246,0.278,0.48,0.289L1877.399,339.599z M1879.654,337.253c-0.504,0.672-0.658,1.643-0.701,2.346h-0.723l0.949-7.873l-0.813-0.098l-0.113,0.937 c-0.045,0.042-0.093,0.082-0.125,0.13c-0.1-0.151-0.254-0.299-0.508-0.299c-0.25,0-0.404,0.146-0.504,0.297 c-0.1-0.151-0.254-0.297-0.506-0.297c-0.246,0-0.402,0.144-0.502,0.293c-0.102-0.149-0.254-0.293-0.504-0.293 c-0.248,0-0.402,0.144-0.502,0.293c-0.001-0.001-0.002-0.002-0.003-0.003l-0.128-1.058l-0.816,0.098l0.952,7.873h-0.712 c-0.047-0.703-0.213-1.68-0.725-2.356c-2.16-2.785-2.266-5.434-2.266-5.457c0-2.899,2.359-5.257,5.264-5.257 c2.898,0,5.258,2.357,5.258,5.255C1881.928,331.809,1881.826,334.456,1879.654,337.253z"><animate attributeName="fill" dur="2s" repeatCount="indefinite" values="#09B7BF;#00E894;#FABEA6;#09B7BF"/><animateTransform id="abc" attributeName="transform" attributeType="XML" begin=".5" dur="1s" repeatCount="indefinite" type="translate" values="0,6;0,-6;0,6"/></path><path fill="#BCBEC0" d="M1879.889,341.433h-6.439c-0.457,0-0.824,0.37-0.824,0.822c0,0.455,0.367,0.819,0.824,0.819h6.439 c0.455,0,0.822-0.364,0.824-0.819C1880.713,341.801,1880.344,341.433,1879.889,341.433z"><animate attributeName="fill" dur="2s" repeatCount="indefinite" values="#09B7BF;#00E894;#FABEA6;#09B7BF"/><animateTransform id="abc" attributeName="transform" attributeType="XML" begin=".5" dur="1s" repeatCount="indefinite" type="translate" values="0,6;0,-6;0,6"/></path><path fill="#BCBEC0" d="M1879.111,343.238h-4.887c-0.455,0-0.822,0.368-0.822,0.821c0,0.456,0.369,0.824,0.822,0.824h4.887 c0.455,0,0.822-0.368,0.822-0.824C1879.934,343.606,1879.566,343.238,1879.111,343.238z"><animate attributeName="fill" dur="2s" repeatCount="indefinite" values="#09B7BF;#00E894;#FABEA6;#09B7BF"/><animateTransform id="abc" attributeName="transform" attributeType="XML" begin=".5" dur="1s" repeatCount="indefinite" type="translate" values="0,6;0,-6;0,6"/></path></g><g><path fill="#BCBEC0" d="M1928.57,327.303h-15.369c-0.928,0-1.684,0.755-1.684,1.686v9.473c0,0.929,0.756,1.685,1.684,1.685h1.896 v2.314c0,0.324,0.184,0.617,0.477,0.76c0.117,0.055,0.242,0.083,0.367,0.083c0.186,0,0.371-0.062,0.523-0.182l3.764-2.976h8.342 c0.93,0,1.686-0.756,1.686-1.685v-9.473C1930.256,328.058,1929.5,327.303,1928.57,327.303z M1928.572,338.459h-8.633 c-0.191,0-0.375,0.064-0.523,0.185l-2.633,2.078v-1.42c0-0.465-0.375-0.843-0.842-0.843h-2.74v-9.473h15.371V338.459z"><animate attributeName="fill" dur="2s" repeatCount="indefinite" values="#09B7BF;#00E894;#FABEA6;#09B7BF"/><animateTransform id="abc" attributeName="transform" attributeType="XML" begin=".6" dur="1s" repeatCount="indefinite" type="translate" values="0,6;0,-6;0,6"/></path><path fill="#BCBEC0" d="M1916.359,332.776h9.477c0.23,0,0.42-0.188,0.42-0.421c0-0.232-0.189-0.422-0.42-0.422h-9.477 c-0.232,0-0.422,0.189-0.422,0.422C1915.938,332.588,1916.127,332.776,1916.359,332.776z"><animate attributeName="fill" dur="2s" repeatCount="indefinite" values="#09B7BF;#00E894;#FABEA6;#09B7BF"/><animateTransform id="abc" attributeName="transform" attributeType="XML" begin=".6" dur="1s" repeatCount="indefinite" type="translate" values="0,6;0,-6;0,6"/></path><path fill="#BCBEC0" d="M1916.359,335.373h9.477c0.23,0,0.42-0.188,0.42-0.42c0-0.232-0.189-0.424-0.42-0.424h-9.477 c-0.232,0-0.422,0.191-0.422,0.424C1915.938,335.184,1916.127,335.373,1916.359,335.373z"><animate attributeName="fill" dur="2s" repeatCount="indefinite" values="#09B7BF;#00E894;#FABEA6;#09B7BF"/><animateTransform id="abc" attributeName="transform" attributeType="XML" begin=".6" dur="1s" repeatCount="indefinite" type="translate" values="0,6;0,-6;0,6"/></path></g><path fill="#BCBEC0" d="M1974.104,334.622l-1.588-1.588c0.367-0.17,0.707-0.402,0.998-0.695c1.348-1.348,1.348-3.541,0-4.889 c-0.654-0.65-1.525-1.014-2.445-1.014c-0.926,0-1.797,0.363-2.447,1.014c-0.295,0.291-0.523,0.631-0.693,0.996l-1.59-1.59 c-0.656-0.657-1.809-0.657-2.469,0l-2.188,2.188c-0.209,0.212-0.289,0.521-0.205,0.807c0.086,0.286,0.316,0.501,0.611,0.564 c0.352,0.075,0.668,0.244,0.912,0.49c0.721,0.716,0.721,1.884,0.002,2.598c-0.689,0.694-1.898,0.694-2.592,0 c-0.25-0.251-0.42-0.564-0.494-0.918c-0.063-0.292-0.277-0.524-0.564-0.607c-0.285-0.089-0.592-0.007-0.805,0.201l-2.436,2.439 c-0.33,0.331-0.516,0.771-0.518,1.233c0,0.468,0.188,0.907,0.518,1.237l7.76,7.763c0.33,0.328,0.768,0.512,1.234,0.512 s0.902-0.184,1.236-0.512l2.438-2.439c0.213-0.21,0.291-0.52,0.207-0.806c-0.086-0.282-0.322-0.499-0.611-0.561 c-0.35-0.073-0.668-0.246-0.916-0.496c-0.715-0.714-0.715-1.878,0-2.593c0.693-0.692,1.902-0.692,2.592-0.002 c0.25,0.252,0.424,0.569,0.496,0.919c0.061,0.289,0.275,0.523,0.563,0.61c0.285,0.083,0.594,0.007,0.805-0.204l2.188-2.189 c0.33-0.328,0.516-0.768,0.516-1.236C1974.617,335.391,1974.432,334.951,1974.104,334.622z M1972.953,335.94l-1.352,1.351 c-0.121-0.172-0.252-0.334-0.402-0.483c-0.652-0.654-1.521-1.013-2.449-1.013c-0.92,0-1.791,0.358-2.441,1.013 c-1.35,1.348-1.35,3.54,0,4.891c0.148,0.15,0.311,0.285,0.484,0.402l-1.604,1.602c-0.057,0.06-0.111,0.055-0.17,0l-7.764-7.762 c-0.027-0.032-0.035-0.065-0.035-0.089c0-0.02,0.008-0.055,0.037-0.086l1.602-1.601c0.115,0.174,0.252,0.336,0.402,0.485 c0.652,0.654,1.521,1.016,2.441,1.016c0.926-0.002,1.797-0.361,2.447-1.016c1.35-1.348,1.35-3.541,0-4.89 c-0.148-0.151-0.311-0.286-0.482-0.402l1.352-1.354c0.059-0.06,0.115-0.06,0.172,0l2.672,2.671c0.24,0.24,0.605,0.304,0.916,0.164 c0.309-0.146,0.494-0.463,0.471-0.802c-0.045-0.543,0.146-1.069,0.52-1.44c0.691-0.695,1.9-0.695,2.598,0 c0.711,0.713,0.711,1.874,0,2.592c-0.377,0.377-0.906,0.562-1.445,0.521c-0.352-0.03-0.662,0.161-0.801,0.468 c-0.145,0.31-0.08,0.672,0.162,0.914l2.672,2.675c0.029,0.029,0.035,0.064,0.035,0.084 C1972.99,335.875,1972.984,335.908,1972.953,335.94z"><animate attributeName="fill" dur="2s" repeatCount="indefinite" values="#09B7BF;#00E894;#FABEA6;#09B7BF"/><animateTransform id="abc" attributeName="transform" attributeType="XML" begin=".7" dur="1s" repeatCount="indefinite" type="translate" values="0,6;0,-6;0,6"/></path></g></g></svg>